# xmcd
#
# Track frame offsets:
#	150
#	5493
#	6657
#	24154
#	47117
#	61728
#	75235
#	88443
#	100915
#	115418
#	120552
#	137205
#	144376
#	163684
#	173647
#	186278
#
# Disc length: 2570 seconds
#
# Revision: 1
# Processed by: cddbd v1.5.2PL0 Copyright (c) Steve Scherf et al.
# Submitted via: audiograbber 1.83.01
#
DISCID=d00a0810
DTITLE=Little Pigeon's ForHill Blues - Pigeon's Flight
DYEAR=2005
DGENRE=Blues
TTITLE0=Pigeon's Flight
TTITLE1=Ok Let's go...
TTITLE2=Goodbye Little Girl
TTITLE3=Further On Up The Road
TTITLE4=Pretty Little Girl
TTITLE5=Diggin' My Potatoes
TTITLE6=Down By The Riverside
TTITLE7=Custard Pie
TTITLE8=Lonesome Valley
TTITLE9=Blues Hop Intro
TTITLE10=Baby Please Dont Go
TTITLE11=T Train
TTITLE12=Lay Down Sally
TTITLE13=You'd Better Mind
TTITLE14=Steady Rollin' Man
TTITLE15=Midnight Special
EXTD=
EXTT0=
EXTT1=
EXTT2=
EXTT3=
EXTT4=
EXTT5=
EXTT6=
EXTT7=
EXTT8=
EXTT9=
EXTT10=
EXTT11=
EXTT12=
EXTT13=
EXTT14=
EXTT15=
PLAYORDER=
